<svg xmlns="http://www.w3.org/2000/svg" version="1.1" xmlns:xlink="http://www.w3.org/1999/xlink" viewBox="0 0 200 200"><rect width="200" height="200" fill="url('#gradient')"></rect><defs><linearGradient id="gradient" gradientTransform="rotate(65 0.5 0.5)"><stop offset="0%" stop-color="#33313b"></stop><stop offset="100%" stop-color="#6b86b0"></stop></linearGradient></defs><g><g fill="#49809f" transform="matrix(4.310570626753976,0,0,4.310570626753976,5.379846033032962,130.63097778762804)" stroke="#30395d" stroke-width="0.9"><path d="M8.94 0L5.91-5.29L4.50-3.75L4.50 0L1.07 0L1.07-14.22L4.50-14.22L4.50-7.95L5.69-9.76L8.76-14.22L13.00-14.22L8.19-7.93L13.00 0L8.94 0ZM17.52-14.22L17.52 0L14.10 0L14.10-14.22L17.52-14.22ZM30.78-14.22L30.78-11.57L26.51-11.57L26.51 0L23.09 0L23.09-11.57L18.90-11.57L18.90-14.22L30.78-14.22ZM39.40-3.78L39.40-3.78Q39.40-4.53 38.87-4.95Q38.34-5.37 37.00-5.82Q35.66-6.27 34.81-6.69L34.81-6.69Q32.05-8.05 32.05-10.42L32.05-10.42Q32.05-11.60 32.74-12.50Q33.43-13.41 34.69-13.91Q35.95-14.41 37.52-14.41L37.52-14.41Q39.05-14.41 40.27-13.87Q41.48-13.32 42.16-12.31Q42.83-11.30 42.83-10L42.83-10L39.41-10Q39.41-10.87 38.88-11.35Q38.35-11.83 37.44-11.83L37.44-11.83Q36.52-11.83 35.99-11.42Q35.46-11.02 35.46-10.39L35.46-10.39Q35.46-9.84 36.04-9.40Q36.63-8.96 38.11-8.48Q39.58-8.01 40.53-7.46L40.53-7.46Q42.83-6.13 42.83-3.80L42.83-3.80Q42.83-1.93 41.43-0.87Q40.02 0.20 37.57 0.20L37.57 0.20Q35.84 0.20 34.44-0.42Q33.04-1.04 32.33-2.12Q31.62-3.20 31.62-4.61L31.62-4.61L35.06-4.61Q35.06-3.47 35.65-2.92Q36.24-2.38 37.57-2.38L37.57-2.38Q38.42-2.38 38.91-2.75Q39.40-3.12 39.40-3.78Z"></path></g></g></svg>